<?xml version="1.0" encoding="UTF-8" standalone="no"?>
<svg
   xmlns:psjhill="http://www.cyfrogen.com/psj/develop/namespaces/psjhill"
   xmlns:dc="http://purl.org/dc/elements/1.1/"
   xmlns:cc="http://creativecommons.org/ns#"
   xmlns:rdf="http://www.w3.org/1999/02/22-rdf-syntax-ns#"
   xmlns:svg="http://www.w3.org/2000/svg"
   xmlns="http://www.w3.org/2000/svg"
   xmlns:sodipodi="http://sodipodi.sourceforge.net/DTD/sodipodi-0.dtd"
   xmlns:inkscape="http://www.inkscape.org/namespaces/inkscape"
   sodipodi:docname="drawing_old.svg"
   inkscape:version="1.0beta2 (2b71d25d45, 2019-12-03)"
   id="svg6144"
   version="1.1"
   viewBox="0 0 210 297"
   height="297mm"
   width="210mm">
  <defs
     id="defs6138" />
  <sodipodi:namedview
     inkscape:window-maximized="1"
     inkscape:window-y="28"
     inkscape:window-x="0"
     inkscape:window-height="1015"
     inkscape:window-width="1920"
     showgrid="false"
     inkscape:document-rotation="0"
     inkscape:current-layer="g957"
     inkscape:document-units="mm"
     inkscape:cy="799.90441"
     inkscape:cx="-10.345856"
     inkscape:zoom="35.329555"
     inkscape:pageshadow="2"
     inkscape:pageopacity="0.0"
     borderopacity="1.0"
     bordercolor="#666666"
     pagecolor="#ffffff"
     id="base" />
  <metadata
     id="metadata6141">
    <rdf:RDF>
      <cc:Work
         rdf:about="">
        <dc:format>image/svg+xml</dc:format>
        <dc:type
           rdf:resource="http://purl.org/dc/dcmitype/StillImage" />
        <dc:title></dc:title>
      </cc:Work>
    </rdf:RDF>
  </metadata>
  <g
     inkscape:groupmode="layer"
     id="layer5"
     inkscape:label="bg"
     style="display:inline"
     sodipodi:insensitive="true">
    <rect
       style="opacity:1;fill:#aad2ff;fill-opacity:1;stroke:none;stroke-width:0.01;stroke-miterlimit:4;stroke-dasharray:none;stroke-opacity:1"
       id="rect7192"
       width="935.92255"
       height="595.15503"
       x="-216.86932"
       y="54.670822" />
  </g>
  <g
     psjhill:layer-name="hill"
     psjhill:layer-type="HILL_BODY"
     psjhill:layer-num="1"
     psjhill:type="layer"
     inkscape:groupmode="layer"
     id="layer3"
     inkscape:label="hill_body"
     style="display:inline;opacity:1">
    <g
       psjhill:type="shape-group"
       id="g957">
      <path
         psjhill:type="shape"
         transform="scale(0.26458333)"
         inkscape:connector-curvature="0"
         d="m -27.195312,784.02539 -1.539063,4.26367 18.064453,12.69727 1.5410158,-4.26367 z"
         style="display:inline;fill:#dfdfdf;fill-opacity:1;stroke:none;stroke-width:0.0377953;stroke-miterlimit:4;stroke-dasharray:none"
         id="path7655" />
      <path
         psjhill:type="shape"
         sodipodi:nodetypes="ccccc"
         inkscape:connector-curvature="0"
         d="m -5.1991061,208.862 h 1.3155382 l -0.4310125,2.0534 -1.796003,-0.36244 z"
         style="opacity:1;fill:#d7d7d7;fill-opacity:1;stroke:none;stroke-width:0.0164624;stroke-miterlimit:4;stroke-dasharray:none;stroke-opacity:1"
         id="rect7667" />
      <path
         transform="scale(0.26458333)"
         psjhill:type="shape"
         inkscape:connector-curvature="0"
         d="m 424.68164,1040.2559 -29.69531,-6.0391 -7.0918,-1.5098 -7.00976,-1.6269 -6.92969,-1.7403 -6.85352,-1.8496 -6.77734,-1.957 -6.70508,-2.0625 -6.63281,-2.1641 -6.56445,-2.2617 -6.4961,-2.3554 -6.43164,-2.4493 -6.36914,-2.539 -6.30859,-2.625 -6.25,-2.709 -6.19336,-2.7891 -6.13867,-2.8672 -6.08594,-2.93942 -6.03711,-3.01367 -5.98828,-3.08008 -5.94141,-3.14648 -5.89844,-3.21094 -5.85547,-3.26758 -5.8164,-3.32617 -5.77735,-3.3789 -5.74414,-3.42969 -5.70898,-3.47852 -5.67774,-3.52148 -5.64843,-3.56445 -5.6211,-3.60157 -5.5957,-3.63867 -5.57422,-3.67187 -5.55273,-3.70118 -5.53321,-3.72851 -5.51562,-3.75 -5.50195,-3.77344 -5.49024,-3.79101 -5.47851,-3.80469 -5.47071,-3.81836 -5.46484,-3.82617 -5.45898,-3.83203 -5.45899,-3.83399 -70.236328,-49.36523 -96.236328,-67.63672 -1.109375,3.0918 96.236329,67.63867 70.238282,49.36328 5.45703,3.83594 5.46094,3.83203 5.46289,3.82617 5.4707,3.81641 5.48047,3.80664 5.48828,3.78906 5.50195,3.77344 5.51758,3.75195 5.53321,3.72656 5.55078,3.70117 5.57422,3.67188 5.5957,3.63867 5.62109,3.60156 5.64844,3.56446 5.67773,3.52343 5.71094,3.47657 5.74219,3.42968 5.7793,3.37891 5.81445,3.32617 5.85742,3.26953 5.89649,3.20899 5.94335,3.14648 5.98633,3.08008 6.03711,3.01369 6.08594,2.9414 6.13867,2.8652 6.19336,2.7891 6.25,2.709 6.30859,2.625 6.36915,2.539 6.43164,2.4492 6.49804,2.3575 6.5625,2.2617 6.63282,2.1621 6.70507,2.0625 6.77735,1.957 6.85351,1.8496 6.92969,1.7403 7.01172,1.6269 7.0918,1.5098 29.69336,6.0391 z"
         style="display:inline;opacity:1;fill:#ffffff;fill-opacity:1;stroke:none;stroke-width:0.0377953;stroke-miterlimit:4;stroke-dasharray:none"
         id="path1204" />
      <path
         psjhill:type="shape"
         inkscape:connector-curvature="0"
         transform="scale(0.26458333)"
         d="m -12.462891,796.49805 -0.08203,0.22656 96.246094,67.64258 70.236327,49.36328 5.45898,3.83594 5.45899,3.83203 5.46484,3.82617 5.47071,3.81641 5.47851,3.80664 5.49024,3.78906 5.50195,3.77344 5.51562,3.75195 5.53321,3.72851 5.55273,3.70118 5.57422,3.66992 5.5957,3.63867 5.6211,3.60352 5.64843,3.5625 5.67774,3.52343 5.70898,3.47657 5.74414,3.42968 5.77735,3.38086 5.8164,3.32422 5.85547,3.26953 5.89844,3.20899 5.94141,3.14648 5.98828,3.08203 6.03711,3.01172 6.08593,2.94138 6.13868,2.8672 6.19336,2.7891 6.25,2.707 6.30859,2.625 6.36914,2.5391 6.43164,2.4492 6.49609,2.3574 6.56446,2.2617 6.63281,2.1621 6.70508,2.0625 6.77734,1.9571 6.85352,1.8515 6.92969,1.7383 7.00976,1.627 7.0918,1.5117 29.68554,6.0351 0.0859,-0.2421 -29.72265,-6.043 -7.0918,-1.5117 -7.01172,-1.625 -6.92969,-1.7403 -6.85351,-1.8515 -6.77735,-1.9571 -6.70508,-2.0605 -6.63281,-2.1641 -6.56445,-2.2617 -6.49609,-2.3574 -6.43165,-2.4492 -6.36914,-2.5371 -6.30859,-2.625 -6.25,-2.709 -6.19336,-2.7891 -6.13867,-2.8672 -6.08594,-2.94138 -6.03711,-3.01172 -5.98633,-3.08203 -5.94336,-3.14648 -5.89648,-3.20899 -5.85742,-3.26953 -5.81641,-3.32422 -5.77734,-3.3789 -5.74219,-3.42969 -5.71094,-3.47852 -5.67773,-3.52148 -5.64844,-3.56445 -5.62109,-3.60352 -5.5957,-3.63867 -5.57422,-3.66992 -5.55078,-3.70118 -5.53321,-3.72851 -5.51758,-3.75195 -5.50195,-3.77149 -5.49023,-3.79101 -5.47852,-3.80469 -5.4707,-3.81836 -5.46289,-3.82617 -5.46094,-3.83203 -5.45703,-3.83594 -70.238282,-49.36328 z"
         style="display:inline;opacity:1;fill:#f0f0f0;fill-opacity:1;stroke:none;stroke-width:0.0377953;stroke-miterlimit:4;stroke-dasharray:none"
         id="path1129" />
      <path
         psjhill:type="shape"
         inkscape:connector-curvature="0"
         id="path1129-6"
         style="display:inline;opacity:1;fill:#f0f0f0;fill-opacity:1;stroke:none;stroke-width:0.01;stroke-miterlimit:4;stroke-dasharray:none"
         d="m -3.372518,210.92964 -0.021704,0.0599 25.465112,17.8971 18.583361,13.0607 1.444355,1.01493 1.444358,1.01389 1.445905,1.01234 1.447459,1.00976 1.449522,1.00717 1.452626,1.00252 1.455724,0.99839 1.459342,0.99271 1.463995,0.9865 1.46916,0.97927 1.474845,0.971 1.480529,0.96273 1.48725,0.95343 1.49448,0.94258 1.502235,0.93224 1.510501,0.91984 1.519804,0.90744 1.528591,0.89452 1.538922,0.87953 1.54926,0.86507 1.560629,0.84904 1.571998,0.83251 1.584399,0.81545 1.597319,0.79685 1.610235,0.77824 1.624193,0.75862 1.63866,0.73794 1.653645,0.71623 1.669148,0.69453 1.685168,0.67181 1.701705,0.64801 1.718757,0.62373 1.736847,0.59841 1.754931,0.57206 1.774052,0.5457 1.793167,0.51782 1.81333,0.48987 1.833483,0.45993 1.85467,0.43047 1.87637,0.39997 7.8543,1.59679 0.0227,-0.0641 -7.86412,-1.59888 -1.87637,-0.39997 -1.85519,-0.42994 -1.833483,-0.46046 -1.81332,-0.48987 -1.793146,-0.51782 -1.774053,-0.54517 -1.754931,-0.57259 -1.736844,-0.5984 -1.718757,-0.62373 -1.701707,-0.64802 -1.685168,-0.67127 -1.669148,-0.69454 -1.653646,-0.71675 -1.63866,-0.73795 -1.62419,-0.75861 -1.610238,-0.77824 -1.597319,-0.79686 -1.583883,-0.81545 -1.572514,-0.83251 -1.56011,-0.84904 -1.549776,-0.86506 -1.538925,-0.87954 -1.528588,-0.894 -1.519288,-0.90744 -1.511019,-0.92035 -1.502233,-0.93173 -1.494483,-0.94309 -1.487247,-0.95343 -1.480529,-0.96274 -1.474845,-0.971 -1.468644,-0.97927 -1.463995,-0.9865 -1.45986,-0.9927 -1.455724,-0.99787 -1.452624,-1.00304 -1.449525,-1.00666 -1.447456,-1.01027 -1.445389,-1.01235 -1.444874,-1.01389 -1.443839,-1.01492 -18.583879,-13.0607 z" />
      <path
         sodipodi:nodetypes="cccc"
         psjhill:type="shape"
         style="display:inline;opacity:1;fill:#cccccc;stroke:none;stroke-width:0.0100231;stroke-linecap:butt;stroke-linejoin:miter;stroke-miterlimit:4;stroke-dasharray:none;stroke-opacity:1"
         d="m 34.880437,242.90986 -0.36547,-0.024 4.3e-4,-3.66293 0.36723,-1.01472"
         id="t9-1"
         inkscape:connector-curvature="0" />
      <path
         psjhill:type="shape"
         sodipodi:nodetypes="ccccccccccccccccccccccccccccccccccccccccccccccccccccccccccccccccccccccccccccccccccccccccc"
         inkscape:connector-curvature="0"
         d="m -3.1616338,210.36385 -0.091384,0.24932 25.4521928,17.88883 18.583878,13.06122 1.444357,1.01441 1.444356,1.01389 1.445908,1.01234 1.447456,1.01028 1.449522,1.00665 1.452626,1.00304 1.455724,0.99787 1.459344,0.99271 1.463993,0.9865 1.469162,0.97927 1.474327,0.97152 1.481048,0.96221 1.487246,0.95343 1.494484,0.9431 1.502232,0.93172 1.510504,0.92036 1.519804,0.90744 1.528587,0.894 1.538926,0.88005 1.549259,0.86455 1.560627,0.84904 1.571998,0.83251 1.584399,0.81545 1.596802,0.79685 1.610755,0.77826 1.624189,0.75859 1.63866,0.73795 1.653646,0.71676 1.668632,0.69453 1.685168,0.67177 1.702221,0.64805 1.718759,0.6232 1.736845,0.59843 1.75493,0.57256 1.774053,0.5452 1.793174,0.51829 1.813324,0.4894 1.83348,0.46043 1.85467,0.43045 1.87637,0.39947 7.86774,1.59938 0.0914,-0.24826 -7.8667,-1.59991 -1.87637,-0.39947 -1.85467,-0.43045 -1.833997,-0.46045 -1.813327,-0.48938 -1.793171,-0.51778 -1.773537,-0.54571 -1.754931,-0.57258 -1.736844,-0.59788 -1.719275,-0.62373 -1.701705,-0.64804 -1.685168,-0.67178 -1.669151,-0.69453 -1.653645,-0.71676 -1.63866,-0.73795 -1.62419,-0.7581 -1.610238,-0.77824 -1.5968,-0.79737 -1.584399,-0.81494 -1.571999,-0.83251 -1.560628,-0.84956 -1.549258,-0.86454 -1.538925,-0.88005 -1.529106,-0.89401 -1.519288,-0.90743 -1.510501,-0.92036 -1.502232,-0.93173 -1.494484,-0.94309 -1.487765,-0.95291 -1.480529,-0.96274 -1.47433,-0.97151 -1.469159,-0.97927 -1.463993,-0.98651 -1.459859,-0.99218 -1.455727,-0.99839 -1.452108,-1.00304 -1.449522,-1.00666 -1.447459,-1.00975 -1.445905,-1.01286 -1.444874,-1.01389 -1.443839,-1.01441 -18.583879,-13.06122 z"
         style="display:inline;opacity:1;fill:#2b2b2b;fill-opacity:1;stroke:none;stroke-width:0.01;stroke-miterlimit:4;stroke-dasharray:none;stroke-opacity:1"
         id="path1246" />
      <path
         inkscape:connector-curvature="0"
         transform="scale(0.26458333)"
         d="m 375.52734,1027.9727 -0.26562,1.1328 5.77148,1.4492 7.00977,1.6269 7.0918,1.5098 29.73632,6.0449 0.0215,-1.1758 -29.35742,-5.9687 -7.0918,-1.5098 -7.00977,-1.6269 z"
         style="display:inline;opacity:1;fill:#b5d3d7;fill-opacity:0.388235;stroke:none;stroke-width:0.0377953;stroke-miterlimit:4;stroke-dasharray:none;stroke-opacity:1"
         id="path1246-3" />
      <path
         psjhill:type="shape"
         inkscape:connector-curvature="0"
         transform="scale(0.26458333)"
         d="m -11.554688,793.97852 -0.394531,1.10156 96.197266,67.61133 70.238283,49.36523 5.45898,3.83398 5.45899,3.83204 5.46484,3.82617 5.4707,3.81836 5.47852,3.80469 5.49023,3.79101 5.50196,3.77149 5.51562,3.75195 5.53321,3.72851 5.55273,3.70118 5.57227,3.67187 5.59765,3.63672 5.62109,3.60351 5.64844,3.56446 5.67774,3.52148 5.70898,3.47852 5.74414,3.42969 5.77735,3.3789 5.8164,3.32617 5.85547,3.26758 5.89844,3.20899 5.9414,3.14648 5.98829,3.08203 6.03515,3.01172 6.08789,2.94136 6.13867,2.8672 6.19336,2.7891 6.25,2.709 6.30664,2.625 6.36914,2.539 6.4336,2.4493 6.49609,2.3554 6.56446,2.2617 6.63281,2.1641 6.70508,2.0606 6.77734,1.9589 6.85352,1.8497 1.1582,0.291 0.26562,-1.1328 -1.02539,-0.2579 -6.85351,-1.8496 -6.77735,-1.957 -6.70312,-2.0625 -6.63281,-2.1641 -6.56446,-2.2597 -6.49804,-2.3574 -6.43164,-2.4493 -6.36914,-2.539 -6.3086,-2.625 -6.25,-2.709 -6.19336,-2.7891 -6.13867,-2.86521 -6.08594,-2.94141 -6.03515,-3.01367 -5.98828,-3.08008 -5.94141,-3.14648 -5.89844,-3.21094 -5.85547,-3.26758 -5.8164,-3.32617 -5.7793,-3.3789 -5.74219,-3.42969 -5.70898,-3.47852 -5.67774,-3.52148 -5.64843,-3.56445 -5.62305,-3.60157 -5.5957,-3.63867 -5.57227,-3.67187 -5.55273,-3.70118 -5.53321,-3.72851 -5.51758,-3.75 -5.50195,-3.77344 -5.48828,-3.79101 -5.47852,-3.80469 -5.4707,-3.81641 -5.46484,-3.82812 -5.46094,-3.83203 -5.45703,-3.83399 -70.238282,-49.36523 z"
         style="display:inline;opacity:1;fill:#422c0f;fill-opacity:1;stroke:none;stroke-width:0.0377953;stroke-miterlimit:4;stroke-dasharray:none;stroke-opacity:1"
         id="path1374" />
      <rect
         ry="0.048766255"
         style="display:inline;opacity:1;fill:#906d22;fill-opacity:1;stroke:none;stroke-width:0.00959775;stroke-miterlimit:4;stroke-dasharray:none;stroke-opacity:1"
         id="rect7674-0"
         width="0.13990347"
         height="1.1232989"
         x="68.816154"
         y="199.04681"
         transform="rotate(19.800668)" />
      <path
         psjhill:type="shape"
         id="path1246-5"
         style="display:inline;opacity:1;fill:#2b2b2b;fill-opacity:1;stroke:none;stroke-width:0.01;stroke-miterlimit:4;stroke-dasharray:none;stroke-opacity:1"
         d="m -3.437418,211.13033 -0.091384,0.24932 25.452192,17.88883 18.583877,13.06122 1.444358,1.01441 1.444357,1.01389 1.445906,1.01234 1.447456,1.01028 1.449523,1.00665 1.452626,1.00304 1.455724,0.99787 1.459344,0.99271 1.463992,0.9865 1.469163,0.97927 1.474327,0.97152 1.481047,0.96221 1.487247,0.95343 1.494486,0.9431 1.50223,0.93172 1.510503,0.92036 1.519807,0.90744 1.528585,0.894 1.538928,0.88005 1.549257,0.86455 1.560629,0.84904 1.571998,0.83251 1.584399,0.81545 1.5968,0.79685 1.610757,0.77826 1.624187,0.75859 1.63866,0.73795 1.653646,0.71676 1.668632,0.69453 1.685168,0.67177 1.702221,0.64805 1.718759,0.6232 1.736847,0.59843 1.754928,0.57256 1.774053,0.5452 1.79317,0.51829 1.81333,0.4894 1.833483,0.46043 1.85467,0.43045 1.87637,0.39947 7.86774,1.59938 0.0914,-0.24826 -7.8667,-1.59991 -1.87637,-0.39947 -1.85467,-0.43045 -1.834003,-0.46045 -1.81332,-0.48938 -1.793176,-0.51778 -1.773537,-0.54571 -1.754931,-0.57258 -1.736844,-0.59788 -1.719275,-0.62373 -1.701705,-0.64804 -1.685168,-0.67178 -1.669151,-0.69453 -1.653646,-0.71676 -1.638659,-0.73795 -1.62419,-0.7581 -1.610238,-0.77824 -1.596801,-0.79737 -1.584399,-0.81494 -1.571998,-0.83251 -1.560629,-0.84956 -1.549257,-0.86454 -1.538925,-0.88005 -1.529106,-0.89401 -1.519288,-0.90743 -1.510501,-0.92036 -1.502233,-0.93173 -1.494483,-0.94309 -1.487765,-0.95291 -1.480529,-0.96274 -1.47433,-0.97151 -1.46916,-0.97927 -1.463992,-0.98651 -1.45986,-0.99218 -1.455727,-0.99839 -1.452107,-1.00304 -1.449523,-1.00666 -1.447458,-1.00975 -1.445906,-1.01286 -1.444874,-1.01389 -1.443839,-1.01441 -18.583879,-13.06122 z"
         inkscape:connector-curvature="0"
         sodipodi:nodetypes="ccccccccccccccccccccccccccccccccccccccccccccccccccccccccccccccccccccccccccccccccccccccccc" />
      <path
         psjhill:type="shape"
         inkscape:connector-curvature="0"
         transform="scale(0.26458333)"
         d="m 374.59961,1031.9238 -0.26563,1.1328 5.31055,1.334 7.00977,1.627 7.09179,1.5097 29.73633,6.045 0.0234,-1.1778 -29.35938,-5.9668 -7.09179,-1.5097 -7.00977,-1.627 z"
         style="display:inline;opacity:1;fill:#b5d3d7;fill-opacity:0.387151;stroke:none;stroke-width:0.0377953;stroke-miterlimit:4;stroke-dasharray:none;stroke-opacity:1"
         id="path1246-3-9" />
      <path
         sodipodi:nodetypes="cccc"
         psjhill:type="shape"
         style="display:inline;opacity:1;fill:#cccccc;stroke:none;stroke-width:0.0100231;stroke-linecap:butt;stroke-linejoin:miter;stroke-miterlimit:4;stroke-dasharray:none;stroke-opacity:1"
         d="m 17.839516,231.69885 -0.36547,-0.0909 4.3e-4,-4.8056 0.36723,0.33003"
         id="t9-1-9"
         inkscape:connector-curvature="0" />
      <path
         psjhill:type="shape"
         inkscape:connector-curvature="0"
         transform="scale(0.26458333)"
         d="m -12.943359,797.81445 -0.394532,1.10157 96.197266,67.61132 70.238285,49.36524 5.45898,3.83398 5.45898,3.83203 5.46485,3.82618 5.4707,3.81835 5.47852,3.80469 5.49023,3.79102 5.50196,3.77148 5.51562,3.75196 5.5332,3.72851 5.55274,3.70117 5.57226,3.67188 5.59766,3.63672 5.62109,3.60351 5.64844,3.56446 5.67773,3.52148 5.70899,3.47852 5.74414,3.42968 5.77734,3.37891 5.81641,3.32617 5.85547,3.26758 5.89844,3.20898 5.9414,3.14649 5.98828,3.08203 6.03516,3.01174 6.08789,2.9414 6.13867,2.8672 6.19336,2.789 6.25,2.709 6.30664,2.625 6.36914,2.5391 6.4336,2.4492 6.49609,2.3555 6.56445,2.2617 6.63282,2.164 6.70507,2.0606 6.77735,1.959 6.85351,1.8496 1.61914,0.4062 0.26563,-1.1328 -1.48633,-0.373 -6.85351,-1.8496 -6.77735,-1.9571 -6.70312,-2.0625 -6.63282,-2.164 -6.56445,-2.2598 -6.49805,-2.3574 -6.43164,-2.4492 -6.36914,-2.5391 -6.30859,-2.625 -6.25,-2.709 -6.19336,-2.789 -6.13867,-2.8653 -6.08594,-2.94138 -6.03516,-3.01367 -5.98828,-3.08008 -5.9414,-3.14648 -5.89844,-3.21094 -5.85547,-3.26758 -5.81641,-3.32617 -5.77929,-3.37891 -5.74219,-3.42968 -5.70898,-3.47852 -5.67774,-3.52148 -5.64844,-3.56446 -5.62304,-3.60156 -5.59571,-3.63867 -5.57226,-3.67188 -5.55274,-3.70117 -5.5332,-3.72851 -5.51758,-3.75 -5.50195,-3.77344 -5.48828,-3.79102 -5.47852,-3.80468 -5.4707,-3.81641 -5.46484,-3.82813 -5.46094,-3.83203 -5.45703,-3.83398 -70.238284,-49.36524 z"
         style="display:inline;opacity:1;fill:#422c0f;fill-opacity:1;stroke:none;stroke-width:0.0377953;stroke-miterlimit:4;stroke-dasharray:none;stroke-opacity:1"
         id="path1392" />
      <path
         inkscape:connector-curvature="0"
         id="t9-1-9-3"
         d="m 2.5473034,224.03654 -0.36547,-0.0909 4.3e-4,-8.21363 0.36723,0.33003"
         style="display:inline;opacity:1;fill:#cccccc;stroke:none;stroke-width:0.0100231;stroke-linecap:butt;stroke-linejoin:miter;stroke-miterlimit:4;stroke-dasharray:none;stroke-opacity:1"
         psjhill:type="shape"
         sodipodi:nodetypes="cccc" />
      <path
         psjhill:type="shape"
         sodipodi:nodetypes="ccccccccccccccccccccccccccccccccccccccccccccccccccccccccccccccccccccccccccccccccccccccccc"
         inkscape:connector-curvature="0"
         d="m -3.5191837,211.34709 25.4771787,17.90566 18.583777,13.06089 1.44408,1.01472 1.444641,1.01394 1.44576,1.01236 1.447408,1.01 1.449631,1.00683 1.452401,1.0029 1.455725,0.99817 1.459603,0.99264 1.46404,0.98634 1.46903,0.97923 1.474565,0.97136 1.480669,0.96268 1.487316,0.95321 1.49452,0.94297 1.502283,0.93192 1.510596,0.9201 1.519463,0.90747 1.528876,0.89408 1.538864,0.87987 1.54939,0.8649 1.560472,0.84912 1.572115,0.83256 1.584309,0.81522 1.597054,0.79707 1.610355,0.77816 1.624206,0.75843 1.638622,0.73793 1.653585,0.71664 1.669106,0.69456 1.685171,0.6717 1.7018,0.64803 1.718982,0.62359 1.736722,0.59836 1.755008,0.57232 1.773848,0.54552 1.793254,0.51792 1.8132,0.48953 1.833688,0.46035 1.85478,0.43039 1.87638,0.39963 7.83971,1.59464 v 0.73589 l -8.37758,-1.5907 -1.87638,-0.39963 -1.854776,-0.43039 -1.833687,-0.46035 -1.8132,-0.48953 -1.793254,-0.51792 -1.773848,-0.54552 -1.755008,-0.57232 -1.736722,-0.59836 -1.71898,-0.6236 -1.701802,-0.64802 -1.685171,-0.6717 -1.669106,-0.69456 -1.653585,-0.71664 -1.63862,-0.73793 -1.624208,-0.75843 -1.610355,-0.77816 -1.597054,-0.79707 -1.584309,-0.81523 -1.572115,-0.83255 -1.560472,-0.84912 -1.54939,-0.86491 -1.538864,-0.87986 -1.528876,-0.89408 -1.519463,-0.90748 -1.510596,-0.92009 -1.502283,-0.93193 -1.49452,-0.94296 -1.487316,-0.95321 -1.480669,-0.96269 -1.474565,-0.97135 -1.46903,-0.97924 -1.46404,-0.98634 -1.459603,-0.99264 -1.455725,-0.99817 -1.452401,-1.00289 -1.449631,-1.00684 -1.447408,-1.00999 -1.44576,-1.01236 -1.444641,-1.01395 -1.44408,-1.01471 L 21.41966,229.99258 -3.5208112,211.84813 Z"
         style="display:inline;opacity:1;fill:#b1b1b1;fill-opacity:1;stroke:none;stroke-width:0.01;stroke-miterlimit:4;stroke-dasharray:none"
         id="polyline2-3-2" />
      <path
         psjhill:type="shape"
         sodipodi:nodetypes="cccccc"
         inkscape:connector-curvature="0"
         d="m -7.6026366,208.56814 4.073653,2.81172 5.711247,4.35215 0,8.97181 H -8.0172758 Z"
         style="opacity:1;fill:#b1b1b1;fill-opacity:1;stroke:none;stroke-width:0.01;stroke-miterlimit:4;stroke-dasharray:none;stroke-opacity:1"
         id="rect1423" />
      <path
         psjhill:type="shape"
         sodipodi:nodetypes="ccccc"
         inkscape:connector-curvature="0"
         d="m 13.457637,223.90323 4.016155,2.72788 0,5.72673 h -4.016155 z"
         style="display:inline;opacity:1;fill:#b1b1b1;fill-opacity:1;stroke:none;stroke-width:0.00627502;stroke-miterlimit:4;stroke-dasharray:none;stroke-opacity:1"
         id="rect1423-2" />
      <path
         psjhill:type="shape"
         sodipodi:nodetypes="ccccc"
         inkscape:connector-curvature="0"
         d="m 30.493109,235.81784 4.016155,2.98251 0.0057,4.01085 h -4.016155 z"
         style="display:inline;opacity:1;fill:#b1b1b1;fill-opacity:1;stroke:none;stroke-width:0.00627502;stroke-miterlimit:4;stroke-dasharray:none;stroke-opacity:1"
         id="rect1423-2-8" />
      <path
         psjhill:type="shape"
         sodipodi:nodetypes="ccccc"
         inkscape:connector-curvature="0"
         d="m 108.03684,275.93437 4.01616,0.15663 v 2.52635 h -4.01616 z"
         style="display:inline;opacity:1;fill:#b1b1b1;fill-opacity:1;stroke:none;stroke-width:0.00132923;stroke-miterlimit:4;stroke-dasharray:none;stroke-opacity:1"
         id="rect1423-2-8-6" />
      <path
         psjhill:type="shape"
         inkscape:connector-curvature="0"
         id="t9"
         d="m 112.41143,278.98704 -0.36547,-0.26272 5.3e-4,-2.61249 0.36723,-1.01472"
         style="display:inline;opacity:1;fill:#cccccc;stroke:none;stroke-width:0.0100231;stroke-linecap:butt;stroke-linejoin:miter;stroke-miterlimit:4;stroke-dasharray:none;stroke-opacity:1"
         sodipodi:nodetypes="cccc" />
      <path
         psjhill:type="shape"
         sodipodi:nodetypes="ccccc"
         inkscape:connector-curvature="0"
         id="path7669"
         d="m -4.299,209.81394 v 1.03727 l 0.415,-1.08898 v -0.90059 z"
         style="fill:#cccccc;fill-opacity:1;stroke:none;stroke-width:0.387383px;stroke-linecap:butt;stroke-linejoin:miter;stroke-opacity:1" />
      <rect
         psjhill:type="shape"
         y="209.81393"
         x="-7.0655017"
         height="2.0508678"
         width="2.7664821"
         id="rect7672"
         style="opacity:1;fill:#b1b1b1;fill-opacity:1;stroke:none;stroke-width:0.01;stroke-miterlimit:4;stroke-dasharray:none;stroke-opacity:1" />
      <path
         psjhill:type="shape"
         style="display:inline;opacity:1;fill:#fefefe;fill-opacity:1;stroke:none;stroke-width:0.264583px;stroke-linecap:butt;stroke-linejoin:miter;stroke-opacity:1"
         d="M 113.54684,277.86044 C 100.71157,275.5814 93.244199,273.75659 81.769229,267.98623 62.633859,258.36374 55.892099,253.56487 43.720109,246.29281 22.47854,233.60219 2.5343666,219.37863 -21.050017,215.30028 c -8.199678,-1.41794 -22.652377,-5.44398 -24.829667,2.5875 -11.230098,41.42506 -40.257046,149.85117 5.023803,197.81084 59.249717,62.75495 172.023391,-12.56262 258.029901,21.42324 97.32727,35.49904 205.53297,8.3151 307.97013,1.58453 14.98979,-0.98489 33.64836,4.10452 44.64794,-6.12644 5.56024,-5.17171 14.60704,-22.24675 4.7208,-22.28629 -52.53564,-0.21012 -226.12228,-0.0276 -232.82211,-1.80683 -28.77146,-7.64083 -3.19966,-0.16391 -140.8493,-89.36364 -13.96265,-9.04806 -60.09469,-36.4331 -87.29464,-41.26275 z"
         id="path1419"
         inkscape:connector-curvature="0"
         sodipodi:nodetypes="sssasacaassss" />
    </g>
    <path
       sodipodi:nodetypes="ccccccccccccccccccccccccccccccccccccccccccccccccccccccccccccccccccccccccccccccccccccccccccccccccccccccccccccccccccccccccccccccccccccccccccccccccccccccccccccccccccccccccccccccccccccccccccccccccccccccccccccc"
       inkscape:connector-curvature="0"
       d="M 565.81216,408.9518 H 365.81217 l -2.33253,-0.0274 -2.33254,-0.0828 -2.33252,-0.13933 -2.33253,-0.19695 -2.33254,-0.25572 -2.33253,-0.31567 -2.33254,-0.3768 -2.33252,-0.43924 -2.33253,-0.50299 -2.33254,-0.56803 -2.33253,-0.63453 -2.33254,-0.70245 -2.33251,-0.77188 -2.33253,-0.84287 -2.33253,-0.91547 -2.33254,-0.98978 -2.33253,-1.06582 -2.33253,-1.14367 -2.33253,-1.22344 -2.33253,-1.30515 -1.79784,-1.04133 -1.79492,-1.04635 -1.79199,-1.05135 -1.78905,-1.05636 -1.78609,-1.06135 -1.78313,-1.06633 -1.78013,-1.0713 -1.77715,-1.07627 -1.77412,-1.08124 -1.77109,-1.08618 -1.76807,-1.09113 -1.76499,-1.09605 -1.76195,-1.10098 -1.75885,-1.1059 -1.75577,-1.1108 -1.75266,-1.11571 -1.74952,-1.12059 -1.7464,-1.12547 -1.74324,-1.13035 -1.74008,-1.13521 -1.30298,-0.8546 -1.30118,-0.85731 -1.29939,-0.86005 -1.29758,-0.86276 -1.29577,-0.86549 -1.29395,-0.86818 -1.29215,-0.87091 -1.2903,-0.8736 -1.28848,-0.87631 -1.28663,-0.87899 -1.28479,-0.8817 -1.28294,-0.88439 -1.2811,-0.88706 -1.27922,-0.88975 -1.27735,-0.89243 -1.27551,-0.89509 -1.2736,-0.89778 -1.27175,-0.90043 -1.26983,-0.9031 -1.26795,-0.90575 -3.61843,-2.60553 -3.61844,-2.63255 -3.61844,-2.65515 -3.61843,-2.67334 -3.61845,-2.68711 -3.61843,-2.69649 -3.61844,-2.70143 -3.61844,-2.70196 -3.61844,-2.69808 -3.61844,-2.68979 -3.61844,-2.67708 -3.61844,-2.65996 -3.61843,-2.63842 -3.61843,-2.61247 -3.61844,-2.5821 -3.61844,-2.54733 -3.61844,-2.50813 -3.61844,-2.46453 -3.61844,-2.41651 -3.61844,-2.36407 -3.61843,-2.30722 -3.61844,-2.24596 -3.61844,-2.18028 -3.61844,-2.11019 -3.61844,-2.03568 -3.61844,-1.95676 -3.61844,-1.87343 -3.61843,-1.78569 -3.61844,-1.69352 -3.61844,-1.59694 -3.61844,-1.49595 -3.61844,-1.39055 -3.61843,-1.28073 -3.61844,-1.16649 -3.61844,-1.04785 -3.61844,-0.92479 -3.61844,-0.79731 -3.61844,-0.66543 -3.61843,-0.52912 -3.61844,-0.3884 -2.26791,6.31616 3.61844,0.3884 3.61843,0.52912 3.61844,0.66543 3.61844,0.79731 3.61844,0.92479 3.61844,1.04785 3.61843,1.16649 3.61844,1.28073 3.61844,1.39055 3.61844,1.49595 3.61844,1.59694 3.61844,1.69352 3.61844,1.78568 3.61843,1.87343 3.61844,1.95676 3.61844,2.03568 3.61844,2.11019 3.61844,2.18028 3.61844,2.24596 3.61843,2.30722 3.61844,2.36407 3.61844,2.41651 3.61844,2.46453 3.61844,2.50813 3.61844,2.54733 3.61844,2.5821 3.61843,2.61247 3.61843,2.63842 3.61844,2.65996 3.61844,2.67708 3.61844,2.68979 3.61844,2.69808 3.61844,2.70196 3.61844,2.70143 3.61843,2.69649 3.61845,2.68711 3.61843,2.67334 3.61844,2.65515 3.61844,2.63255 3.61844,2.60553 1.26795,0.90575 1.26982,0.9031 1.27175,0.90043 1.2736,0.89778 1.2755,0.89509 1.27737,0.89243 1.27921,0.88975 1.28109,0.88706 1.28295,0.88439 1.28479,0.8817 1.28663,0.87899 1.28848,0.87631 1.2903,0.8736 1.29215,0.87091 1.29395,0.86818 1.29577,0.86549 1.29758,0.86276 1.29939,0.86005 1.30118,0.85731 1.30298,0.8546 1.74008,1.13521 1.74324,1.13035 1.7464,1.12547 1.74952,1.12059 1.75266,1.11571 1.75577,1.1108 1.75885,1.1059 1.76195,1.10098 1.76499,1.09605 1.76807,1.09113 1.77109,1.08618 1.77412,1.08124 1.77715,1.07627 1.78013,1.0713 1.78313,1.06633 1.78609,1.06135 1.78905,1.05636 1.79199,1.05134 1.79492,1.04636 1.79784,1.04133 2.33253,1.30515 2.33253,1.22344 2.33253,1.14366 2.33253,1.06583 2.33254,0.98978 2.33253,0.91547 2.33253,0.84287 2.33252,0.77188 2.33254,0.70245 2.33253,0.63453 2.33253,0.56803 2.33253,0.50299 2.33253,0.43923 2.33253,0.37681 2.33254,0.31566 2.33253,0.25572 2.33253,0.19696 2.33252,0.13933 2.33254,0.0828 2.33253,0.0274 h 199.99997 z"
       style="display:inline;fill:#ffffff;fill-opacity:1;stroke:none;stroke-width:0.1;stroke-miterlimit:4;stroke-dasharray:none"
       id="polyline4-8-4" />
    <text
       transform="rotate(-80.696507)"
       id="text7503"
       y="161.05835"
       x="-258.85397"
       style="font-style:normal;font-weight:normal;font-size:1.12803px;line-height:1.25;font-family:sans-serif;display:inline;fill:#2e4f31;fill-opacity:1;stroke:none;stroke-width:0.0282009"
       xml:space="preserve"><tspan
         style="font-style:normal;font-variant:normal;font-weight:bold;font-stretch:normal;font-family:'DejaVu Sans';-inkscape-font-specification:'DejaVu Sans Bold';fill:#2e4f31;fill-opacity:1;stroke-width:0.0282009"
         y="161.05835"
         x="-258.85397"
         id="tspan7501"
         sodipodi:role="line">PLANICA</tspan></text>
    <path
       sodipodi:nodetypes="ccccccccccccccccccccccccccccccccccccccccccccccccccccccccccccccccccccccccccccccccccccccccccccccccccccccccccccccccccccccccccccccccccccccccccccccccccccccccccccccccccccccccccccccccccccccccccccccccccccccccccccc"
       inkscape:connector-curvature="0"
       d="M 565.81216,408.9518 H 365.81217 l -2.33253,-0.0274 -2.33254,-0.0828 -2.33252,-0.13933 -2.33253,-0.19695 -2.33254,-0.25572 -2.33253,-0.31567 -2.33254,-0.3768 -2.33252,-0.43924 -2.33253,-0.50299 -2.33254,-0.56803 -2.33253,-0.63453 -2.33254,-0.70245 -2.33251,-0.77188 -2.33253,-0.84287 -2.33253,-0.91547 -2.33254,-0.98978 -2.33253,-1.06582 -2.33253,-1.14367 -2.33253,-1.22344 -2.33253,-1.30515 -1.79784,-1.04133 -1.79492,-1.04635 -1.79199,-1.05135 -1.78905,-1.05636 -1.78609,-1.06135 -1.78313,-1.06633 -1.78013,-1.0713 -1.77715,-1.07627 -1.77412,-1.08124 -1.77109,-1.08618 -1.76807,-1.09113 -1.76499,-1.09605 -1.76195,-1.10098 -1.75885,-1.1059 -1.75577,-1.1108 -1.75266,-1.11571 -1.74952,-1.12059 -1.7464,-1.12547 -1.74324,-1.13035 -1.74008,-1.13521 -1.30298,-0.8546 -1.30118,-0.85731 -1.29939,-0.86005 -1.29758,-0.86276 -1.29577,-0.86549 -1.29395,-0.86818 -1.29215,-0.87091 -1.2903,-0.8736 -1.28848,-0.87631 -1.28663,-0.87899 -1.28479,-0.8817 -1.28294,-0.88439 -1.2811,-0.88706 -1.27922,-0.88975 -1.27735,-0.89243 -1.27551,-0.89509 -1.2736,-0.89778 -1.27175,-0.90043 -1.26983,-0.9031 -1.26795,-0.90575 -3.61843,-2.60553 -3.61844,-2.63255 -3.61844,-2.65515 -3.61843,-2.67334 -3.61845,-2.68711 -3.61843,-2.69649 -3.61844,-2.70143 -3.61844,-2.70196 -3.61844,-2.69808 -3.61844,-2.68979 -3.61844,-2.67708 -3.61844,-2.65996 -3.61843,-2.63842 -3.61843,-2.61247 -3.61844,-2.5821 -3.61844,-2.54733 -3.61844,-2.50813 -3.61844,-2.46453 -3.61844,-2.41651 -3.61844,-2.36407 -3.61843,-2.30722 -3.61844,-2.24596 -3.61844,-2.18028 -3.61844,-2.11019 -3.61844,-2.03568 -3.61844,-1.95676 -3.61844,-1.87343 -3.61843,-1.78569 -3.61844,-1.69352 -3.61844,-1.59694 -3.61844,-1.49595 -3.61844,-1.39055 -3.61843,-1.28073 -3.61844,-1.16649 -3.61844,-1.04785 -3.61844,-0.92479 -3.61844,-0.79731 -3.61844,-0.66543 -3.61843,-0.52912 -3.61844,-0.3884 0.0123,-0.60464 3.81492,0.39135 3.61843,0.52912 3.61844,0.66543 3.61844,0.79731 3.61844,0.92479 3.61844,1.04785 3.61844,1.16649 3.61843,1.28073 3.61844,1.39055 3.61844,1.49595 3.61844,1.59694 3.61844,1.69352 3.61843,1.78568 3.61844,1.87343 3.61844,1.95676 3.61844,2.03568 3.61844,2.11019 3.61844,2.18028 3.61844,2.24596 3.61843,2.30722 3.61844,2.36407 3.61844,2.41651 3.61844,2.46453 3.61844,2.50813 3.61844,2.54733 3.61844,2.5821 3.61843,2.61247 3.61843,2.63842 3.61844,2.65996 3.61844,2.67708 3.61844,2.68979 3.61844,2.69808 3.61844,2.70196 3.61844,2.70143 3.61843,2.69649 3.61845,2.68711 3.61843,2.67334 3.61844,2.65515 3.61844,2.63255 3.61843,2.60553 1.26795,0.90575 1.26984,0.9031 1.27174,0.90043 1.2736,0.89778 1.27551,0.89509 1.27735,0.89243 1.27922,0.88975 1.28109,0.88706 1.28295,0.88439 1.28479,0.8817 1.28663,0.87899 1.28848,0.87631 1.2903,0.8736 1.29215,0.87091 1.29395,0.86818 1.29577,0.86549 1.29758,0.86276 1.29939,0.86005 1.30118,0.85731 1.30298,0.8546 1.74008,1.13521 1.74324,1.13035 1.7464,1.12547 1.74952,1.12059 1.75266,1.11571 1.75577,1.1108 1.75885,1.1059 1.76195,1.10098 1.76499,1.09605 1.76807,1.09113 1.77109,1.08618 1.77412,1.08124 1.77715,1.07627 1.78013,1.0713 1.78313,1.06633 1.78609,1.06135 1.78905,1.05636 1.79199,1.05135 1.79492,1.04635 1.79784,1.04133 2.33253,1.30515 2.33253,1.22344 2.33253,1.14367 2.33253,1.06582 2.33254,0.98978 2.33253,0.91548 2.33253,0.84287 2.33251,0.77188 2.33255,0.70245 2.33252,0.63451 2.33254,0.56805 2.33253,0.50297 2.33252,0.43924 2.33254,0.37682 2.33253,0.31565 2.33254,0.25572 2.33253,0.19697 2.33252,0.13932 2.33254,0.0828 2.33253,0.0274 h 199.99997 z"
       style="display:inline;fill:#421616;fill-opacity:1;stroke:none;stroke-width:0.1;stroke-miterlimit:4;stroke-dasharray:none"
       id="polyline4-8-75" />
    <path
       id="polyline4-8-75-1"
       style="display:inline;fill:#421616;fill-opacity:1;stroke:none;stroke-width:0.1;stroke-miterlimit:4;stroke-dasharray:none"
       d="M 563.54423,415.26796 H 363.54427 l -2.33253,-0.0274 -2.33254,-0.0828 -2.33252,-0.13933 -2.33253,-0.19696 -2.33254,-0.25572 -2.33253,-0.31566 -2.33254,-0.37681 -2.33252,-0.43924 -2.33253,-0.50298 -2.33254,-0.56804 -2.33253,-0.63452 -2.33254,-0.70245 -2.33252,-0.77188 -2.33253,-0.84287 -2.33253,-0.91548 -2.33254,-0.98978 -2.33253,-1.06581 -2.33253,-1.14368 -2.33253,-1.22343 -2.33253,-1.30515 -1.79783,-1.04134 -1.79492,-1.04634 -1.79199,-1.05135 -1.78905,-1.05636 -1.78609,-1.06135 -1.78313,-1.06633 -1.78013,-1.0713 -1.77715,-1.07627 -1.77412,-1.08124 -1.77109,-1.08618 -1.76807,-1.09113 -1.76499,-1.09605 -1.76195,-1.10098 -1.75885,-1.1059 -1.75577,-1.1108 -1.75266,-1.11571 -1.74952,-1.12059 -1.7464,-1.12547 -1.74324,-1.13035 -1.74008,-1.13521 -1.30298,-0.8546 -1.30118,-0.85731 -1.29939,-0.86005 -1.29758,-0.86276 -1.29577,-0.86549 -1.29395,-0.86819 -1.29215,-0.8709 -1.2903,-0.8736 -1.28848,-0.87631 -1.28663,-0.87899 -1.28479,-0.8817 -1.28295,-0.88439 -1.28109,-0.88706 -1.27922,-0.88975 -1.27736,-0.89243 -1.2755,-0.89509 -1.27361,-0.89778 -1.27174,-0.90044 -1.26983,-0.90309 -1.26795,-0.90575 -3.61844,-2.60553 -3.61844,-2.63255 -3.61844,-2.65515 -3.61843,-2.67334 -3.61845,-2.68711 -3.61842,-2.69649 -3.61844,-2.70143 -3.61845,-2.70196 -3.61843,-2.69808 -3.61844,-2.68979 -3.61844,-2.67708 -3.61844,-2.65996 -3.61844,-2.63842 -3.61843,-2.61247 -3.61844,-2.58211 -3.61844,-2.54732 -3.61844,-2.50814 -3.61844,-2.46452 -3.61844,-2.41651 -3.61844,-2.36407 -3.61843,-2.30722 -3.61844,-2.24596 -3.61844,-2.18028 -3.61844,-2.11019 -3.61844,-2.03568 -3.61843,-1.95676 -3.61844,-1.87343 -3.61844,-1.78568 -3.61844,-1.69352 -3.61844,-1.59694 -3.61843,-1.49595 -3.61844,-1.39055 -3.61844,-1.28073 -3.61844,-1.1665 -3.61844,-1.04784 -3.61844,-0.92479 -3.61844,-0.79731 -3.61843,-0.66543 -3.61844,-0.52912 -3.61844,-0.3884 -0.01,-0.6363 3.83681,0.42301 3.61844,0.52912 3.61843,0.66543 3.61844,0.79731 3.61844,0.92479 3.61844,1.04784 3.61844,1.1665 3.61844,1.28073 3.61844,1.39055 3.61843,1.49595 3.61844,1.59694 3.61844,1.69352 3.61844,1.78568 3.61844,1.87343 3.61843,1.95676 3.61844,2.03568 3.61844,2.11019 3.61844,2.18028 3.61844,2.24596 3.61843,2.30722 3.61844,2.36407 3.61844,2.41651 3.61844,2.46453 3.61844,2.50813 3.61844,2.54733 3.61844,2.5821 3.61843,2.61247 3.61844,2.63842 3.61844,2.65996 3.61843,2.67708 3.61845,2.68979 3.61844,2.69808 3.61843,2.70196 3.61845,2.70143 3.61842,2.69649 3.61845,2.68711 3.61843,2.67334 3.61844,2.65515 3.61844,2.63255 3.61844,2.60553 1.26795,0.90575 1.26983,0.9031 1.27174,0.90043 1.27361,0.89777 1.2755,0.8951 1.27736,0.89243 1.27922,0.88975 1.28109,0.88706 1.28295,0.88439 1.28479,0.88169 1.28663,0.879 1.28848,0.87631 1.2903,0.8736 1.29215,0.8709 1.29395,0.86819 1.29577,0.86549 1.29758,0.86276 1.29939,0.86005 1.30118,0.85731 1.30298,0.8546 1.74008,1.13521 1.74324,1.13035 1.7464,1.12547 1.74952,1.12059 1.75266,1.11571 1.75577,1.1108 1.75885,1.1059 1.76195,1.10098 1.76499,1.09605 1.76807,1.09113 1.77109,1.08618 1.77412,1.08124 1.77715,1.07627 1.78013,1.0713 1.78313,1.06632 1.78609,1.06136 1.78905,1.05636 1.79199,1.05134 1.79491,1.04636 1.79785,1.04133 2.33252,1.30515 2.33253,1.22343 2.33253,1.14367 2.33253,1.06583 2.33254,0.98978 2.33253,0.91547 2.33253,0.84287 2.33252,0.77188 2.33254,0.70245 2.33253,0.63453 2.33254,0.56803 2.33253,0.50298 2.33252,0.43924 2.33254,0.37681 2.33253,0.31566 2.33254,0.25572 2.33253,0.19696 2.33252,0.13933 2.33254,0.0828 2.33253,0.0274 h 199.99999 z"
       inkscape:connector-curvature="0"
       sodipodi:nodetypes="ccccccccccccccccccccccccccccccccccccccccccccccccccccccccccccccccccccccccccccccccccccccccccccccccccccccccccccccccccccccccccccccccccccccccccccccccccccccccccccccccccccccccccccccccccccccccccccccccccccccccccccc" />
  </g>
  <g
     inkscape:groupmode="layer"
     id="layer6"
     inkscape:label="hill_body 2"
     style="display:none" />
  <g
     id="layer1"
     inkscape:groupmode="layer"
     inkscape:label="special_lines"
     style="display:none"
     sodipodi:insensitive="true">
    <path
       id="polyline2"
       style="fill:none;stroke:#ff0000;stroke-width:0.1;stroke-miterlimit:4;stroke-dasharray:none"
       d="m -115.57189,64.744225 25.47718,-17.905663 18.58378,-13.060894 1.44408,-1.014725 1.44464,-1.013937 1.44576,-1.012359 1.44741,-1.009995 1.44963,-1.006838 1.4524,-1.002897 1.455726,-0.998165 1.459604,-0.992645 1.46404,-0.986337 1.46903,-0.979238 1.474566,-0.971355 1.480668,-0.962677 1.487316,-0.953217 1.49452,-0.942963 1.502283,-0.931924 1.510597,-0.920096 1.519463,-0.907478 1.528877,-0.894072 1.538864,-0.879877 1.549389,-0.864897 1.560474,-0.849121 1.572113,-0.832564 1.58431,-0.815214 1.597053,-0.797077 1.610355,-0.778151 1.624207,-0.758434 1.638622,-0.737934 1.653587,-0.7166405 1.669106,-0.6945625 1.685169,-0.67169 1.701801,-0.648033 1.718983,-0.6235906 1.736721,-0.5983564 1.755009,-0.5723265 1.773849,-0.5455207 1.793247,-0.5179177 1.813206,-0.4895286 1.833702,-0.4603501 L -9.715782,1.9945768 -7.8394012,1.5949434 0,0"
       psjhill:type="special"
       psjhill:special-type="in-run-physics"
       inkscape:connector-curvature="0"
       transform="matrix(0.99999988,0,0,-0.99999988,112.23026,275.60211)" />
    <polyline
       psjhill:type="special"
       psjhill:special-type="out-run-physics"
       transform="matrix(0.99999988,0,0,-0.99999988,112.23026,275.60211)"
       id="polyline4"
       points="0.0 -2.93 3.6184387 -3.3184025 7.2368774 -3.8475225 10.855316 -4.5129457 14.473755 -5.3102584 18.092194 -6.235046 21.710632 -7.2828946 25.329071 -8.44939 28.94751 -9.730119 32.56595 -11.120666 36.184387 -12.616617 39.802826 -14.21356 43.421265 -15.907078 47.039703 -17.692759 50.658142 -19.566189 54.27658 -21.522951 57.89502 -23.558634 61.51346 -25.668823 65.1319 -27.849104 68.750336 -30.09506 72.368774 -32.402283 75.98721 -34.766354 79.60565 -37.18286 83.22409 -39.64739 86.84253 -42.15552 90.46097 -44.70285 94.07941 -47.284954 97.697845 -49.897427 101.316284 -52.535847 104.93472 -55.195805 108.55316 -57.872887 112.1716 -60.562675 115.79004 -63.260757 119.40848 -65.96272 123.02692 -68.66415 126.645355 -71.360634 130.2638 -74.04775 133.88223 -76.72109 137.50067 -79.37624 141.11911 -82.00879 144.73755 -84.61432 146.0055 -85.52007 147.27533 -86.423164 148.54707 -87.3236 149.82068 -88.221375 151.09618 -89.11647 152.37354 -90.008896 153.65276 -90.89865 154.93385 -91.78571 156.2168 -92.6701 157.50159 -93.551796 158.78822 -94.43079 160.0767 -95.3071 161.367 -96.1807 162.65915 -97.051605 163.9531 -97.91979 165.24887 -98.78528 166.54645 -99.64804 167.84584 -100.50809 169.14702 -101.3654 170.45 -102.22 172.19008 -103.35521 173.93332 -104.48556 175.67972 -105.61103 177.42924 -106.73162 179.1819 -107.84733 180.93767 -108.95813 182.69652 -110.064026 184.45847 -111.16501 186.22346 -112.26106 187.99153 -113.35219 189.76262 -114.43837 191.53674 -115.51961 193.31389 -116.59588 195.09402 -117.66718 196.87715 -118.73351 198.66324 -119.79486 200.45229 -120.85122 202.24428 -121.90257 204.0392 -122.94892 205.83704 -123.99025 208.16957 -125.2954 210.5021 -126.51884 212.83463 -127.662506 215.16716 -128.72833 217.4997 -129.71811 219.83223 -130.63359 222.16476 -131.47646 224.49728 -132.24834 226.82982 -132.95079 229.16235 -133.58531 231.49489 -134.15335 233.82742 -134.65633 236.15994 -135.09557 238.49248 -135.47238 240.82501 -135.78804 243.15755 -136.04376 245.49008 -136.24072 247.8226 -136.38005 250.15514 -136.46288 252.48767 -136.49025 452.48767 -136.49025 "
       stroke-width="3"
       stroke="green"
       style="fill:none;stroke-width:0.1;stroke-miterlimit:4;stroke-dasharray:none" />
    <polyline
       transform="matrix(0.99999988,0,0,-0.99999988,112.23026,275.60211)"
       id="polyline6"
       points="-115.57189 64.744225 -90.09471 46.838562 "
       stroke-width="3"
       stroke="orange"
       style="fill:none;stroke-width:0.1;stroke-miterlimit:4;stroke-dasharray:none"
       psjhill:type="special"
       psjhill:special-type="start-bar-area" />
    <polyline
       transform="matrix(0.99999988,0,0,-0.99999988,112.23026,275.60211)"
       id="polyline8"
       points="-90.09471 46.838562 -71.51093 33.777668 "
       stroke-width="3"
       stroke="purple"
       style="fill:none;stroke-width:0.1;stroke-miterlimit:4;stroke-dasharray:none" />
    <polyline
       transform="matrix(0.99999988,0,0,-0.99999988,112.23026,275.60211)"
       id="polyline12"
       points="144.73755 -84.61432 146.0055 -85.52007 147.27533 -86.423164 148.54707 -87.3236 149.82068 -88.221375 151.09618 -89.11647 152.37354 -90.008896 153.65276 -90.89865 154.93385 -91.78571 156.2168 -92.6701 157.50159 -93.551796 158.78822 -94.43079 160.0767 -95.3071 161.367 -96.1807 162.65915 -97.051605 163.9531 -97.91979 165.24887 -98.78528 166.54645 -99.64804 167.84584 -100.50809 169.14702 -101.3654 170.45 -102.22 "
       stroke-width="3"
       stroke="pink"
       style="fill:none;stroke-width:0.1;stroke-miterlimit:4;stroke-dasharray:none" />
    <polyline
       transform="matrix(0.99999988,0,0,-0.99999988,112.23026,275.60211)"
       id="polyline14"
       points="170.45 -102.22 172.19008 -103.35521 173.93332 -104.48556 175.67972 -105.61103 177.42924 -106.73162 179.1819 -107.84733 180.93767 -108.95813 182.69652 -110.064026 184.45847 -111.16501 186.22346 -112.26106 187.99153 -113.35219 189.76262 -114.43837 191.53674 -115.51961 193.31389 -116.59588 195.09402 -117.66718 196.87715 -118.73351 198.66324 -119.79486 200.45229 -120.85122 202.24428 -121.90257 204.0392 -122.94892 205.83704 -123.99025 "
       stroke-width="3"
       stroke="cyan"
       style="fill:none;stroke-width:0.1;stroke-miterlimit:4;stroke-dasharray:none" />
    <polyline
       transform="matrix(0.99999988,0,0,-0.99999988,112.23026,275.60211)"
       id="polyline16"
       points="205.83704 -123.99025 208.16957 -125.2954 210.5021 -126.51884 212.83463 -127.662506 215.16716 -128.72833 217.4997 -129.71811 219.83223 -130.63359 222.16476 -131.47646 224.49728 -132.24834 226.82982 -132.95079 229.16235 -133.58531 231.49489 -134.15335 233.82742 -134.65633 236.15994 -135.09557 238.49248 -135.47238 240.82501 -135.78804 243.15755 -136.04376 245.49008 -136.24072 247.8226 -136.38005 250.15514 -136.46288 252.48767 -136.49025 "
       stroke-width="3"
       stroke="yellow"
       style="fill:none;stroke-width:0.1;stroke-miterlimit:4;stroke-dasharray:none" />
    <polyline
       transform="matrix(0.99999988,0,0,-0.99999988,112.23026,275.60211)"
       id="polyline18"
       points="0.0 -2.93 3.6184387 -3.3184025 7.2368774 -3.8475225 10.855316 -4.5129457 14.473755 -5.3102584 18.092194 -6.235046 21.710632 -7.2828946 25.329071 -8.44939 28.94751 -9.730119 32.56595 -11.120666 36.184387 -12.616617 39.802826 -14.21356 43.421265 -15.907078 47.039703 -17.692759 50.658142 -19.566189 54.27658 -21.522951 57.89502 -23.558634 61.51346 -25.668823 65.1319 -27.849104 68.750336 -30.09506 72.368774 -32.402283 75.98721 -34.766354 79.60565 -37.18286 83.22409 -39.64739 86.84253 -42.15552 90.46097 -44.70285 94.07941 -47.284954 97.697845 -49.897427 101.316284 -52.535847 104.93472 -55.195805 108.55316 -57.872887 112.1716 -60.562675 115.79004 -63.260757 119.40848 -65.96272 123.02692 -68.66415 126.645355 -71.360634 130.2638 -74.04775 133.88223 -76.72109 137.50067 -79.37624 141.11911 -82.00879 144.73755 -84.61432 "
       stroke-width="3"
       stroke="black"
       style="fill:none;stroke-width:0.1;stroke-miterlimit:4;stroke-dasharray:none" />
    <polyline
       psjhill:special-type="hill-size-cross"
       psjhill:type="special"
       transform="matrix(0.99999988,0,0,-0.99999988,112.23026,275.60211)"
       id="polyline20"
       points="201.83704 -127.99025 209.83704 -119.99025 "
       stroke-width="3"
       stroke="red"
       style="fill:none;stroke-width:0.1;stroke-miterlimit:4;stroke-dasharray:none" />
    <polyline
       style="fill:none;stroke-width:0.1;stroke-miterlimit:4;stroke-dasharray:none"
       stroke="green"
       stroke-width="3"
       points="0.0 -2.93 3.6184387 -3.3184025 7.2368774 -3.8475225 10.855316 -4.5129457 14.473755 -5.3102584 18.092194 -6.235046 21.710632 -7.2828946 25.329071 -8.44939 28.94751 -9.730119 32.56595 -11.120666 36.184387 -12.616617 39.802826 -14.21356 43.421265 -15.907078 47.039703 -17.692759 50.658142 -19.566189 54.27658 -21.522951 57.89502 -23.558634 61.51346 -25.668823 65.1319 -27.849104 68.750336 -30.09506 72.368774 -32.402283 75.98721 -34.766354 79.60565 -37.18286 83.22409 -39.64739 86.84253 -42.15552 90.46097 -44.70285 94.07941 -47.284954 97.697845 -49.897427 101.316284 -52.535847 104.93472 -55.195805 108.55316 -57.872887 112.1716 -60.562675 115.79004 -63.260757 119.40848 -65.96272 123.02692 -68.66415 126.645355 -71.360634 130.2638 -74.04775 133.88223 -76.72109 137.50067 -79.37624 141.11911 -82.00879 144.73755 -84.61432 146.0055 -85.52007 147.27533 -86.423164 148.54707 -87.3236 149.82068 -88.221375 151.09618 -89.11647 152.37354 -90.008896 153.65276 -90.89865 154.93385 -91.78571 156.2168 -92.6701 157.50159 -93.551796 158.78822 -94.43079 160.0767 -95.3071 161.367 -96.1807 162.65915 -97.051605 163.9531 -97.91979 165.24887 -98.78528 166.54645 -99.64804 167.84584 -100.50809 169.14702 -101.3654 170.45 -102.22 172.19008 -103.35521 173.93332 -104.48556 175.67972 -105.61103 177.42924 -106.73162 179.1819 -107.84733 180.93767 -108.95813 182.69652 -110.064026 184.45847 -111.16501 186.22346 -112.26106 187.99153 -113.35219 189.76262 -114.43837 191.53674 -115.51961 193.31389 -116.59588 195.09402 -117.66718 196.87715 -118.73351 198.66324 -119.79486 200.45229 -120.85122 202.24428 -121.90257 204.0392 -122.94892 205.83704 -123.99025 208.16957 -125.2954 210.5021 -126.51884 212.83463 -127.662506 215.16716 -128.72833 217.4997 -129.71811 219.83223 -130.63359 222.16476 -131.47646 224.49728 -132.24834 226.82982 -132.95079 229.16235 -133.58531 231.49489 -134.15335 233.82742 -134.65633 236.15994 -135.09557 238.49248 -135.47238 240.82501 -135.78804 243.15755 -136.04376 245.49008 -136.24072 247.8226 -136.38005 250.15514 -136.46288 252.48767 -136.49025 452.48767 -136.49025 "
       id="polyline4-3"
       transform="matrix(0.99999988,0,0,-0.99999988,113.32454,272.46157)"
       psjhill:special-type="out-run-top"
       psjhill:type="special" />
    <polyline
       style="fill:none;stroke-width:0.1;stroke-miterlimit:4;stroke-dasharray:none"
       stroke="green"
       stroke-width="3"
       points="0.0 -2.93 3.6184387 -3.3184025 7.2368774 -3.8475225 10.855316 -4.5129457 14.473755 -5.3102584 18.092194 -6.235046 21.710632 -7.2828946 25.329071 -8.44939 28.94751 -9.730119 32.56595 -11.120666 36.184387 -12.616617 39.802826 -14.21356 43.421265 -15.907078 47.039703 -17.692759 50.658142 -19.566189 54.27658 -21.522951 57.89502 -23.558634 61.51346 -25.668823 65.1319 -27.849104 68.750336 -30.09506 72.368774 -32.402283 75.98721 -34.766354 79.60565 -37.18286 83.22409 -39.64739 86.84253 -42.15552 90.46097 -44.70285 94.07941 -47.284954 97.697845 -49.897427 101.316284 -52.535847 104.93472 -55.195805 108.55316 -57.872887 112.1716 -60.562675 115.79004 -63.260757 119.40848 -65.96272 123.02692 -68.66415 126.645355 -71.360634 130.2638 -74.04775 133.88223 -76.72109 137.50067 -79.37624 141.11911 -82.00879 144.73755 -84.61432 146.0055 -85.52007 147.27533 -86.423164 148.54707 -87.3236 149.82068 -88.221375 151.09618 -89.11647 152.37354 -90.008896 153.65276 -90.89865 154.93385 -91.78571 156.2168 -92.6701 157.50159 -93.551796 158.78822 -94.43079 160.0767 -95.3071 161.367 -96.1807 162.65915 -97.051605 163.9531 -97.91979 165.24887 -98.78528 166.54645 -99.64804 167.84584 -100.50809 169.14702 -101.3654 170.45 -102.22 172.19008 -103.35521 173.93332 -104.48556 175.67972 -105.61103 177.42924 -106.73162 179.1819 -107.84733 180.93767 -108.95813 182.69652 -110.064026 184.45847 -111.16501 186.22346 -112.26106 187.99153 -113.35219 189.76262 -114.43837 191.53674 -115.51961 193.31389 -116.59588 195.09402 -117.66718 196.87715 -118.73351 198.66324 -119.79486 200.45229 -120.85122 202.24428 -121.90257 204.0392 -122.94892 205.83704 -123.99025 208.16957 -125.2954 210.5021 -126.51884 212.83463 -127.662506 215.16716 -128.72833 217.4997 -129.71811 219.83223 -130.63359 222.16476 -131.47646 224.49728 -132.24834 226.82982 -132.95079 229.16235 -133.58531 231.49489 -134.15335 233.82742 -134.65633 236.15994 -135.09557 238.49248 -135.47238 240.82501 -135.78804 243.15755 -136.04376 245.49008 -136.24072 247.8226 -136.38005 250.15514 -136.46288 252.48767 -136.49025 452.48767 -136.49025 "
       id="polyline4-6"
       transform="matrix(0.99999988,0,0,-0.99999988,111.26546,278.17604)"
       psjhill:special-type="out-run-bottom"
       psjhill:type="special" />
    <circle
       psjhill:special-type="viewpoint"
       psjhill:type="special"
       r="4.631835"
       cy="247.27724"
       cx="87.46801"
       id="path868"
       style="fill:none;stroke:#00245d;stroke-width:0.0365125" />
  </g>
</svg>
